<svg x="0" y="0" width="48" height="48" version="1.1" xmlns="http://www.w3.org/2000/svg" xmlns:xlink="http://www.w3.org/1999/xlink"><defs><linearGradient x1="11.68966" y1="12.80878" x2="57.52354" y2="56.40442" gradientUnits="userSpaceOnUse" id="color-1"><stop offset="0" stop-color="#000000" stop-opacity="0.7"></stop><stop offset="1" stop-color="#000000" stop-opacity="0"></stop></linearGradient><filter id="dropshadow"><feColorMatrix type="matrix" values="0 0 0 0 .05  0 0 0 0 .15  0 0 0 0 .1  0 0 0 .8 0"></feColorMatrix> <feOffset dx="0" dy="1"></feOffset> <feGaussianBlur stdDeviation="1"></feGaussianBlur> <feComposite in="SourceGraphic"></feComposite></filter></defs><g fill="none" stroke="none" stroke-width="none" stroke-linecap="butt" stroke-linejoin="miter" stroke-miterlimit="none" stroke-dasharray="" stroke-dashoffset="0" font-family="none" font-weight="normal" font-size="none" text-anchor="start" mix-blend-mode="normal"><g fill="#000000" stroke="none" stroke-width="1" stroke-miterlimit="4" font-family="&quot;Open Sans&quot;, sans-serif" font-size="14"></g><path d="M3,24c0,-11.59798 9.40202,-21 21,-21c11.59798,0 21,9.40202 21,21c0,11.59798 -9.40202,21 -21,21c-11.59798,0 -21,-9.40202 -21,-21z" fill="#212121" stroke-width="1" stroke-miterlimit="10" font-family="sans-serif" font-size="12" filter="url(#dropshadow)"></path><path d="M21.75057,17.27408l-2.22706,-2.22706l0,-2.23824c0,0 2.23825,2.23825 2.23825,2.23825c0,0 0,-0.00001 0,-0.00001l-2.23824,-2.23824l2.23824,0l2.23825,2.23825l5.5956,0l14.62847,14.62847c-2.13696,7.63063 -8.47638,13.50534 -16.36477,14.97064c0,0 -14.39584,-14.39584 -14.39584,-14.39584l5.63444,-5.56797l-7.40825,-7.40825l0,-2.22705l7.83385,0l2.22705,2.22705z" fill="url(#color-1)" stroke-width="1" stroke-miterlimit="10" font-family="sans-serif" font-size="12"></path><path d="M24.1231,29.71871l-3.48047,-3.48047l-5.59561,5.59561l-1.58356,-1.58356l5.69073,-5.62359c-1.3989,-1.55558 -2.51802,-3.27903 -3.33498,-5.10319l2.23824,0c0.68266,1.33175 1.54439,2.59077 2.58517,3.74906c1.61154,-1.79059 2.79221,-3.83859 3.54762,-5.99849l-12.50059,0l0,-2.22705l7.83385,0l0,-2.23824l2.23824,0l0,2.23824l7.83385,0l0,2.24384l-3.27903,0c-0.81696,2.64113 -2.20467,5.13677 -4.15194,7.30786l-0.03357,0.03357l2.84257,2.809z M36.31034,35.19122l-2.23824,0l-1.25901,-3.35736l-5.31583,0l-1.25901,3.35736l-2.23824,0l5.03605,-13.42946l2.23824,0z M31.97374,29.59561l-1.81857,-4.85139l-1.81857,4.85139z" fill="#ffffff" stroke="none" stroke-width="0" stroke-miterlimit="4" font-family="&quot;Open Sans&quot;, sans-serif" font-size="14"></path></g></svg>